<?xml version="1.0" encoding="utf-8"?>
<!-- Generator: Adobe Illustrator 24.0.1, SVG Export Plug-In . SVG Version: 6.00 Build 0)  -->
<svg version="1.1" id="Camada_1" xmlns="http://www.w3.org/2000/svg" xmlns:xlink="http://www.w3.org/1999/xlink" x="0px" y="0px"
	 viewBox="0 0 1920 274.1" style="enable-background:new 0 0 1920 274.1;" xml:space="preserve">
<style type="text/css">
	.st0{fill:#FFFFFF;}
</style>
<path class="st0" d="M88.5,191.2c17.9,17.8,51.4,21.2,74,10.9c9.3-4.2,21.1-23.2,28.2-22l45.2,44.4c-61.4,76-183.4,62.8-221.9-29
	C-45.3,54.1,139.3-54.1,235.9,62.9l-45.2,44.4c-7.1,1.2-18.9-17.7-28.2-21.9C96.4,55.1,37.2,140.1,88.5,191.2z"/>
<path class="st0" d="M1018.4,15.1c49.5-6.7,92.7,9.9,124.3,47.8l-45.2,44.4c-26.5-23.5-56.5-39.7-90.7-18.7
	c-65.4,40.3-17.3,141.3,56.1,115.7c16.7-5.8,19.9-17.9,34.6-24.1l45.2,44.4c-90.1,110.6-266.4,20.3-227.5-117
	C928,62.2,970.9,21.5,1018.4,15.1z"/>
<path class="st0" d="M1381.1,82.1h-76.6v187.2h-68.1V82.1h-72.3V18.2h210.6C1387.9,34.2,1378.2,61.9,1381.1,82.1z"/>
<polygon class="st0" points="874.8,116.1 874.8,171.4 755.7,171.4 755.7,209.7 887.6,209.7 887.6,269.3 687.6,269.3 687.6,116.1 "/>
<path class="st0" d="M337,78.8c84.3-13.5,104.1,112.7,26.9,129c-50.7,10.7-62.3-27.5-99.4-41.4c-26.2-9.8-61.4-14.5-88.1-5.7
	c-19.8,6.5-26.2,24.1-52.1,18.4c-35.8-7.9-36-62.7,0-70.7c29-6.4,39,19.2,63.9,23.7c33.6,6.2,64.9-2,93.4-19.5
	C301.1,100.6,309.6,83.2,337,78.8z"/>
<path class="st0" d="M887.6,77.8h-200V18.2h193.6C894.2,33,884.9,58.9,887.6,77.8z"/>
<path class="st0" d="M1525,18.8c1,0.8,2.8,4.6,3.4,6.1c20.9,74.9,51.2,149,71.6,223.7c2,7.3,7.1,18.4-4.2,19.7
	c-16.9,2-37.6,1.1-55.2-0.3c-8.4-1.9-9.8-25.5-13.1-33l-69.1-0.2c-3.3,6.1-5.9,31.2-12.6,33.2c-10.2,1.4-54.6,3.2-60.7-1
	c-1.9-1.3-2.4-4-2.8-6.1l76-239.1c1.9-2.6,3.2-4.2,6.5-4.6c11.7-1.6,42.2-1,54.5,0C1521.3,17.5,1523.3,17.5,1525,18.8z
	 M1473.3,181.8h38.6l-17.7-72.9l-3.3,0L1473.3,181.8z"/>
<path class="st0" d="M1753.8,170.1c-10.8,0-20.9,0-31.1,0c-15.3,0-30.6,0.1-45.9,0c-11.9-0.1-19.5-7.8-19.5-19.8
	c0-11.1-0.1-22.3,0-33.4c0.1-11.9,7.5-19.3,19.3-19.4c23.7-0.1,47.5,0,71.2,0c1.8,0,3.7,0,6,0c0-2.2,0-3.9,0-5.5
	c0-23.8,0-47.7,0-71.5c0-12,6.5-19.3,18.3-19.6c12.6-0.3,43.8-1.2,56.4-0.7c9.7,0.4-2.6,8.7-2.6,18.6c0.1,24.3,0.1,48.6,0.1,72.9
	c0,1.7,0,3.4,0,5.9c2.1,0,3.9,0,5.7,0c23.4,0,58.6,0.5,82,0.5c13.8,0,0.3,5.7,0.3,19.6c0,10.7,0,22.7,0,33.4
	c0,12.4,1.1,19.1-11.4,19.1c-23.6,0.1-47.1,0-70.7,0c-1.8,0-3.7,0-6,0c0,6.7,0,12.9,0,19.1c0,19.6,0,39.2,0,58.8
	c0,11.2,13.8,18.7,2.6,18.9c-11.9,0.2-44.6,0-56.4-0.2c-10.9-0.2-18.3-7.9-18.3-18.9c0-24,0-48,0-72
	C1753.8,174.2,1753.8,172.5,1753.8,170.1z"/>
<path class="st0" d="M363.6,16.5h129.8l104.2,127.6V16.5h66.7l1.4,251l-62.8-0.5L499.7,135.6v131.9H363.6
	c0,0,119.3-31.6,104.7-142.3C468.3,125.1,463.6,43.4,363.6,16.5z"/>
</svg>
