<svg width="210" height="30" viewBox="0 0 210 30" fill="none" xmlns="http://www.w3.org/2000/svg">
<path d="M9.39734 20.9403C11.3593 22.8865 15.0114 23.2563 17.4979 22.1275C18.508 21.6604 19.8096 19.5974 20.5866 19.7336L25.5208 24.5798C18.7994 32.8902 5.4539 31.45 1.25793 21.4074C-5.23029 5.93479 14.9725 -5.91781 25.5208 6.88845L20.5866 11.7346C19.8096 11.8708 18.508 9.78834 17.4979 9.34071C10.2715 6.0321 3.80271 15.3351 9.39734 20.9403Z" fill="#172E80"/>
<path d="M9.39734 20.9403C11.3593 22.8865 15.0114 23.2563 17.4979 22.1275C18.508 21.6604 19.8096 19.5974 20.5866 19.7336L25.5208 24.5798C18.7994 32.8902 5.4539 31.45 1.25793 21.4074C-5.23029 5.93479 14.9725 -5.91781 25.5208 6.88845L20.5866 11.7346C19.8096 11.8708 18.508 9.78834 17.4979 9.34071C10.2715 6.0321 3.80271 15.3351 9.39734 20.9403Z" fill="#1E1E1E"/>
<path d="M111.111 1.67251C116.531 0.952406 121.251 2.76241 124.709 6.9079L119.775 11.754C116.88 9.185 113.597 7.41392 109.848 9.71048C102.699 14.109 107.964 25.1636 115.987 22.361C117.813 21.7188 118.162 20.3953 119.775 19.7336L124.709 24.5798C114.86 36.6854 95.5702 26.7985 99.8245 11.7735C101.223 6.83005 105.905 2.37316 111.111 1.67251Z" fill="#172E80"/>
<path d="M111.111 1.67251C116.531 0.952406 121.251 2.76241 124.709 6.9079L119.775 11.754C116.88 9.185 113.597 7.41392 109.848 9.71048C102.699 14.109 107.964 25.1636 115.987 22.361C117.813 21.7188 118.162 20.3953 119.775 19.7336L124.709 24.5798C114.86 36.6854 95.5702 26.7985 99.8245 11.7735C101.223 6.83005 105.905 2.37316 111.111 1.67251Z" fill="#1E1E1E"/>
<path d="M150.759 8.99038H142.386V29.4843H134.946V8.99038H127.04V2.00339H150.079C151.517 3.755 150.448 6.79113 150.759 8.99038Z" fill="#172E80"/>
<path d="M150.759 8.99038H142.386V29.4843H134.946V8.99038H127.04V2.00339H150.079C151.517 3.755 150.448 6.79113 150.759 8.99038Z" fill="#1E1E1E"/>
<path d="M95.3954 12.7077V18.7605H82.3607V22.9644H96.7941V29.4843H74.9207V12.7077H95.3954Z" fill="#172E80"/>
<path d="M95.3954 12.7077V18.7605H82.3607V22.9644H96.7941V29.4843H74.9207V12.7077H95.3954Z" fill="#1E1E1E"/>
<path d="M36.5741 8.64006C45.8014 7.16092 47.9576 20.9597 39.5074 22.7503C33.9711 23.918 32.6889 19.7336 28.629 18.2156C25.7734 17.1451 21.9271 16.6196 18.9938 17.5928C16.8181 18.3129 16.1187 20.2396 13.2826 19.5974C9.35856 18.7216 9.33914 12.7466 13.2826 11.8708C16.449 11.1702 17.5563 13.9728 20.2564 14.4593C23.9279 15.1405 27.3663 14.2452 30.4744 12.3379C32.6501 11.0145 33.5825 9.10716 36.5741 8.64006Z" fill="#172E80"/>
<path d="M96.7941 8.52329H74.9207V2.00339H96.0948C97.5129 3.61877 96.5027 6.46028 96.7941 8.52329Z" fill="#172E80"/>
<path d="M166.513 2.08123C166.63 2.17854 166.824 2.58725 166.882 2.74295C169.175 10.9366 172.477 19.0524 174.711 27.2266C174.925 28.0246 175.488 29.2507 174.264 29.387C172.419 29.6011 170.146 29.5037 168.223 29.3675C167.29 29.1534 167.154 26.5844 166.785 25.767L159.229 25.7475C158.879 26.4287 158.588 29.1534 157.849 29.3675C156.723 29.5232 151.866 29.7178 151.206 29.2702C150.992 29.1339 150.953 28.842 150.895 28.6085L159.209 2.45101C159.423 2.17854 159.559 2.00338 159.928 1.94499C161.21 1.76983 164.551 1.82822 165.892 1.94499C166.105 1.92553 166.319 1.92553 166.513 2.08123ZM160.841 19.9088H165.056L163.133 11.9292H162.764L160.841 19.9088Z" fill="#172E80"/>
<path d="M166.513 2.08123C166.63 2.17854 166.824 2.58725 166.882 2.74295C169.175 10.9366 172.477 19.0524 174.711 27.2266C174.925 28.0246 175.488 29.2507 174.264 29.387C172.419 29.6011 170.146 29.5037 168.223 29.3675C167.29 29.1534 167.154 26.5844 166.785 25.767L159.229 25.7475C158.879 26.4287 158.588 29.1534 157.849 29.3675C156.723 29.5232 151.866 29.7178 151.206 29.2702C150.992 29.1339 150.953 28.842 150.895 28.6085L159.209 2.45101C159.423 2.17854 159.559 2.00338 159.928 1.94499C161.21 1.76983 164.551 1.82822 165.892 1.94499C166.105 1.92553 166.319 1.92553 166.513 2.08123ZM160.841 19.9088H165.056L163.133 11.9292H162.764L160.841 19.9088Z" fill="#1E1E1E"/>
<path d="M191.534 18.6243C190.349 18.6243 189.241 18.6243 188.134 18.6243C186.463 18.6243 184.793 18.6243 183.122 18.6243C181.821 18.6243 180.985 17.7679 180.985 16.4445C180.985 15.2183 180.985 14.0117 180.985 12.7855C180.985 11.4816 181.801 10.6641 183.103 10.6641C185.706 10.6641 188.289 10.6641 190.893 10.6641C191.087 10.6641 191.3 10.6641 191.553 10.6641C191.553 10.4306 191.553 10.236 191.553 10.0608C191.553 7.45285 191.553 4.84488 191.553 2.23692C191.553 0.913482 192.272 0.115524 193.554 0.0960617C194.933 0.0571369 198.352 -0.0401798 199.712 0.0182074C200.78 0.0571322 199.42 0.971869 199.44 2.0423C199.44 4.70865 199.44 7.35553 199.459 10.0219C199.459 10.2165 199.459 10.3917 199.459 10.6641C199.692 10.6641 199.887 10.6641 200.081 10.6641C202.645 10.6641 206.491 10.7225 209.056 10.7225C210.571 10.7225 209.094 11.3453 209.094 12.8634C209.094 14.0311 209.094 15.3546 209.094 16.5223C209.094 17.8847 209.211 18.6048 207.851 18.6243C205.268 18.6243 202.703 18.6243 200.12 18.6243C199.926 18.6243 199.712 18.6243 199.459 18.6243C199.459 19.3444 199.459 20.0255 199.459 20.7067C199.459 22.8476 199.459 24.9885 199.459 27.1488C199.459 28.3749 200.975 29.1923 199.731 29.2118C198.43 29.2313 194.855 29.2118 193.554 29.1923C192.369 29.1729 191.553 28.3165 191.553 27.1293C191.553 24.5019 191.553 21.8745 191.553 19.247C191.534 19.0719 191.534 18.8773 191.534 18.6243Z" fill="#172E80"/>
<path d="M39.488 1.80876H53.6883L65.0913 15.7828V1.80876H72.3954L72.5508 29.2702L65.6935 29.2118L54.3682 14.8486V29.2897H39.488C39.488 29.2897 52.5228 25.8254 50.9298 13.7197C50.9298 13.7003 50.4248 4.76704 39.488 1.80876Z" fill="#172E80"/>
<path d="M39.488 1.80876H53.6883L65.0913 15.7828V1.80876H72.3954L72.5508 29.2702L65.6935 29.2118L54.3682 14.8486V29.2897H39.488C39.488 29.2897 52.5228 25.8254 50.9298 13.7197C50.9298 13.7003 50.4248 4.76704 39.488 1.80876Z" fill="#1E1E1E"/>
</svg>
