<?xml version="1.0" encoding="utf-8"?>
<!-- Generator: Adobe Illustrator 24.0.1, SVG Export Plug-In . SVG Version: 6.00 Build 0)  -->
<svg version="1.1" xmlns="http://www.w3.org/2000/svg" xmlns:xlink="http://www.w3.org/1999/xlink" x="0px" y="0px"
	 viewBox="0 0 1920 1080" style="enable-background:new 0 0 1920 1080;" xml:space="preserve">
<style type="text/css">
	.st0{display:none;}
	.st1{display:inline;}
	.st2{fill:#212020;}
	.st3{fill:#ffff;}
	.st4{display:inline;fill:#97D700;}
	.st5{display:inline;fill:#212020;}
	.st6{display:inline;fill:#729B11;}
</style>
<g id="Camada_1" class="st0">
	<g class="st1">
		<rect class="st2" width="1920" height="1080"/>
	</g>
</g>
<g id="Camada_2">
	<g id="logo">
		<path class="st3" d="M468.6,570.3c10.1,10,28.9,11.9,41.7,6.1c5.2-2.4,11.9-13,15.9-12.3l25.4,24.9
			c-34.6,42.7-103.3,35.3-124.9-16.3c-33.4-79.5,70.6-140.4,124.9-74.6l-25.4,24.9c-4,0.7-10.7-10-15.9-12.3
			C473.1,493.7,439.8,541.5,468.6,570.3z"/>
		<path class="st3" d="M992.2,471.3c27.9-3.7,52.2,5.6,70,26.9l-25.4,24.9c-14.9-13.2-31.8-22.3-51.1-10.5
			c-36.8,22.6-9.7,79.4,31.6,65c9.4-3.3,11.2-10.1,19.5-13.5l25.4,24.9c-50.7,62.2-150,11.4-128.1-65.8
			C941.3,497.8,965.4,474.9,992.2,471.3z"/>
		<path class="st3" d="M1196.3,508.9h-43.1v105.3h-38.3V508.9h-40.7V473h118.6C1200.2,482,1194.7,497.6,1196.3,508.9z"/>
		<polygon class="st3" points="911.3,528 911.3,559.1 844.2,559.1 844.2,580.7 918.5,580.7 918.5,614.2 805.9,614.2 805.9,528 		"/>
		<path class="st3" d="M608.5,507.1c47.5-7.6,58.6,63.3,15.1,72.5c-28.5,6-35.1-15.5-56-23.3c-14.7-5.5-34.5-8.2-49.6-3.2
			c-11.2,3.7-14.8,13.6-29.4,10.3c-20.2-4.5-20.3-35.2,0-39.7c16.3-3.6,22,10.8,35.9,13.3c18.9,3.5,36.6-1.1,52.6-10.9
			C588.3,519.3,593.1,509.5,608.5,507.1z"/>
		<path class="st3" d="M918.5,506.5H805.9V473h109C922.2,481.3,917,495.9,918.5,506.5z"/>
		<path class="st3" d="M1277.4,473.4c0.6,0.5,1.6,2.6,1.9,3.4c11.8,42.1,28.8,83.8,40.3,125.8c1.1,4.1,4,10.4-2.3,11.1
			c-9.5,1.1-21.2,0.6-31.1-0.1c-4.8-1.1-5.5-14.3-7.4-18.5l-38.9-0.1c-1.8,3.5-3.3,17.5-7.1,18.6c-5.8,0.8-30.8,1.8-34.2-0.5
			c-1.1-0.7-1.3-2.2-1.6-3.4l42.8-134.4c1.1-1.4,1.8-2.3,3.7-2.6c6.6-0.9,23.8-0.6,30.7,0C1275.3,472.6,1276.4,472.6,1277.4,473.4z
			 M1248.2,565h21.7l-9.9-41l-1.9,0L1248.2,565z"/>
		<path class="st3" d="M1406.2,558.4c-6.1,0-11.8,0-17.5,0c-8.6,0-17.2,0-25.8,0c-6.7,0-11-4.4-11-11.2c0-6.3,0-12.5,0-18.8
			c0-6.7,4.2-10.9,10.9-10.9c13.4,0,26.7,0,40.1,0c1,0,2.1,0,3.4,0c0-1.2,0-2.2,0-3.1c0-13.4,0-26.8,0-40.2c0-6.8,3.7-10.9,10.3-11
			c7.1-0.2,24.7-0.7,31.7-0.4c5.5,0.2-1.5,4.9-1.4,10.4c0,13.7,0,27.3,0.1,41c0,1,0,1.9,0,3.3c1.2,0,2.2,0,3.2,0
			c13.2,0,33,0.3,46.2,0.3c7.8,0,0.2,3.2,0.2,11c0,6,0,12.8,0,18.8c0,7,0.6,10.7-6.4,10.8c-13.3,0-26.5,0-39.8,0c-1,0-2.1,0-3.4,0
			c0,3.7,0,7.2,0,10.7c0,11,0,22,0,33.1c0,6.3,7.8,10.5,1.4,10.6c-6.7,0.1-25.1,0-31.8-0.1c-6.1-0.1-10.3-4.5-10.3-10.6
			c0-13.5,0-27,0-40.5C1406.2,560.7,1406.2,559.7,1406.2,558.4z"/>
		<path class="st3" d="M623.5,472h73.1l58.7,71.8V472h37.6l0.8,141.1l-35.3-0.3L700.1,539v74.2h-76.6c0,0,67.1-17.8,58.9-80
			C682.4,533.1,679.8,487.2,623.5,472z"/>
	</g>
	<g id="palleta" class="st0">
		<rect x="113" y="-177" class="st4" width="60" height="60"/>
		<rect x="426" y="-177" class="st5" width="60" height="60"/>
		<rect x="426" y="-99" class="st6" width="60" height="60"/>
		<g class="st1">
			<rect x="113" y="-99" class="st2" width="60" height="60"/>
		</g>
		<text transform="matrix(1 0 0 1 209.2578 -57.1138)" class="st1" style="font-family:'MyriadPro-Regular'; font-size:36.6715px;">#212020</text>
		
			<text transform="matrix(1 0 0 1 210.2578 -132.1138)" class="st1" style="font-family:'MyriadPro-Regular'; font-size:36.6715px;">#97d700</text>
		
			<text transform="matrix(0.9908 0 0 1 517.2578 -132.1138)" class="st1" style="font-family:'MyriadPro-Regular'; font-size:36.6715px;">#ffffff</text>
		
			<text transform="matrix(0.9908 0 0 1 518.2578 -57.1138)" class="st1" style="font-family:'MyriadPro-Regular'; font-size:36.6715px;">#729b11</text>
	</g>
</g>
</svg>
